<mxfile host="app.diagrams.net" agent="Mozilla/5.0 (Windows NT 10.0; Win64; x64) AppleWebKit/537.36 (KHTML, like Gecko) Chrome/128.0.0.0 Safari/537.36" version="24.7.10">
  <diagram name="Страница — 1" id="NHzT-cjriv-6d1ryG_HA">
    <mxGraphModel dx="1500" dy="807" grid="1" gridSize="10" guides="1" tooltips="1" connect="1" arrows="1" fold="1" page="1" pageScale="1" pageWidth="1169" pageHeight="827" math="0" shadow="0">
      <root>
        <mxCell id="0" />
        <mxCell id="1" parent="0" />
        <mxCell id="unwX76k_dKx1Uzxo_52H-1" value="&lt;b&gt;Функциональные требования&lt;/b&gt;&lt;div style=&quot;text-align: left;&quot;&gt;- подписка на ежедневную рассылку вопросов&lt;/div&gt;&lt;div style=&quot;text-align: left;&quot;&gt;- отписка от рассылки вопросов&lt;/div&gt;&lt;div style=&quot;text-align: left;&quot;&gt;- предложить свой вопрос&lt;/div&gt;&lt;div style=&quot;text-align: left;&quot;&gt;- просмотр всего списка вопросов (по ссылке)&lt;/div&gt;&lt;div style=&quot;text-align: left;&quot;&gt;&lt;br&gt;&lt;/div&gt;&lt;div style=&quot;text-align: left;&quot;&gt;- пользовательские сессии:&lt;/div&gt;&lt;div style=&quot;text-align: left;&quot;&gt;- пометить вопрос как ненужный&lt;/div&gt;&lt;div style=&quot;text-align: left;&quot;&gt;- просмотреть ненужные вопросы, редактировать&lt;/div&gt;&lt;div style=&quot;text-align: left;&quot;&gt;- добавить свой локальный вопрос&lt;/div&gt;" style="text;html=1;align=center;verticalAlign=middle;resizable=0;points=[];autosize=1;strokeColor=none;fillColor=none;" vertex="1" parent="1">
          <mxGeometry width="300" height="160" as="geometry" />
        </mxCell>
        <mxCell id="unwX76k_dKx1Uzxo_52H-2" value="&lt;b&gt;Нефункциональные требования&lt;/b&gt;&lt;div style=&quot;text-align: left;&quot;&gt;Телеграм-бот&lt;/div&gt;&lt;div style=&quot;text-align: left;&quot;&gt;Одностраничное приложение по ссылке&lt;/div&gt;&lt;div style=&quot;text-align: left;&quot;&gt;Хранение вопросов&lt;/div&gt;&lt;div style=&quot;text-align: left;&quot;&gt;Хранение пользовательских сессий и настроек&lt;/div&gt;" style="text;html=1;align=center;verticalAlign=middle;resizable=0;points=[];autosize=1;strokeColor=none;fillColor=none;" vertex="1" parent="1">
          <mxGeometry x="340" y="10" width="290" height="90" as="geometry" />
        </mxCell>
        <mxCell id="unwX76k_dKx1Uzxo_52H-3" value="Actor" style="shape=umlActor;verticalLabelPosition=bottom;verticalAlign=top;html=1;" vertex="1" parent="1">
          <mxGeometry x="30" y="380" width="40" height="80" as="geometry" />
        </mxCell>
        <mxCell id="unwX76k_dKx1Uzxo_52H-6" value="@TelegrabBot" style="html=1;whiteSpace=wrap;" vertex="1" parent="1">
          <mxGeometry x="260" y="340" width="110" height="180" as="geometry" />
        </mxCell>
        <mxCell id="unwX76k_dKx1Uzxo_52H-8" value="" style="edgeStyle=segmentEdgeStyle;endArrow=classic;html=1;curved=0;rounded=0;endSize=8;startSize=8;" edge="1" parent="1">
          <mxGeometry width="50" height="50" relative="1" as="geometry">
            <mxPoint x="80" y="360" as="sourcePoint" />
            <mxPoint x="250" y="360" as="targetPoint" />
            <Array as="points">
              <mxPoint x="220" y="360" />
            </Array>
          </mxGeometry>
        </mxCell>
        <mxCell id="unwX76k_dKx1Uzxo_52H-9" value="subscribe/unsubscribe" style="edgeLabel;html=1;align=center;verticalAlign=middle;resizable=0;points=[];" vertex="1" connectable="0" parent="unwX76k_dKx1Uzxo_52H-8">
          <mxGeometry x="0.0311" y="-3" relative="1" as="geometry">
            <mxPoint as="offset" />
          </mxGeometry>
        </mxCell>
        <mxCell id="unwX76k_dKx1Uzxo_52H-10" value="" style="edgeStyle=segmentEdgeStyle;endArrow=classic;html=1;curved=0;rounded=0;endSize=8;startSize=8;" edge="1" parent="1">
          <mxGeometry width="50" height="50" relative="1" as="geometry">
            <mxPoint x="80" y="382.58" as="sourcePoint" />
            <mxPoint x="250" y="382.58" as="targetPoint" />
            <Array as="points">
              <mxPoint x="220" y="382.58" />
            </Array>
          </mxGeometry>
        </mxCell>
        <mxCell id="unwX76k_dKx1Uzxo_52H-11" value="offerNewQuestion()" style="edgeLabel;html=1;align=center;verticalAlign=middle;resizable=0;points=[];" vertex="1" connectable="0" parent="unwX76k_dKx1Uzxo_52H-10">
          <mxGeometry x="0.0311" y="-3" relative="1" as="geometry">
            <mxPoint as="offset" />
          </mxGeometry>
        </mxCell>
        <mxCell id="unwX76k_dKx1Uzxo_52H-12" value="" style="edgeStyle=segmentEdgeStyle;endArrow=classic;html=1;curved=0;rounded=0;endSize=8;startSize=8;" edge="1" parent="1">
          <mxGeometry width="50" height="50" relative="1" as="geometry">
            <mxPoint x="80" y="412.17" as="sourcePoint" />
            <mxPoint x="250" y="412.17" as="targetPoint" />
            <Array as="points">
              <mxPoint x="220" y="412.17" />
            </Array>
          </mxGeometry>
        </mxCell>
        <mxCell id="unwX76k_dKx1Uzxo_52H-13" value="newPersonalQuestion()" style="edgeLabel;html=1;align=center;verticalAlign=middle;resizable=0;points=[];" vertex="1" connectable="0" parent="unwX76k_dKx1Uzxo_52H-12">
          <mxGeometry x="0.0311" y="-3" relative="1" as="geometry">
            <mxPoint as="offset" />
          </mxGeometry>
        </mxCell>
        <mxCell id="unwX76k_dKx1Uzxo_52H-14" value="" style="edgeStyle=segmentEdgeStyle;endArrow=classic;html=1;curved=0;rounded=0;endSize=8;startSize=8;" edge="1" parent="1">
          <mxGeometry width="50" height="50" relative="1" as="geometry">
            <mxPoint x="80" y="440" as="sourcePoint" />
            <mxPoint x="250" y="440" as="targetPoint" />
            <Array as="points">
              <mxPoint x="220" y="440" />
            </Array>
          </mxGeometry>
        </mxCell>
        <mxCell id="unwX76k_dKx1Uzxo_52H-15" value="getAllQuestions()" style="edgeLabel;html=1;align=center;verticalAlign=middle;resizable=0;points=[];" vertex="1" connectable="0" parent="unwX76k_dKx1Uzxo_52H-14">
          <mxGeometry x="0.0311" y="-3" relative="1" as="geometry">
            <mxPoint as="offset" />
          </mxGeometry>
        </mxCell>
        <mxCell id="unwX76k_dKx1Uzxo_52H-16" value="" style="edgeStyle=segmentEdgeStyle;endArrow=classic;html=1;curved=0;rounded=0;endSize=8;startSize=8;" edge="1" parent="1">
          <mxGeometry width="50" height="50" relative="1" as="geometry">
            <mxPoint x="80" y="470" as="sourcePoint" />
            <mxPoint x="250" y="470" as="targetPoint" />
            <Array as="points">
              <mxPoint x="220" y="470" />
            </Array>
          </mxGeometry>
        </mxCell>
        <mxCell id="unwX76k_dKx1Uzxo_52H-17" value="excludeQuestion()" style="edgeLabel;html=1;align=center;verticalAlign=middle;resizable=0;points=[];" vertex="1" connectable="0" parent="unwX76k_dKx1Uzxo_52H-16">
          <mxGeometry x="0.0311" y="-3" relative="1" as="geometry">
            <mxPoint as="offset" />
          </mxGeometry>
        </mxCell>
        <mxCell id="unwX76k_dKx1Uzxo_52H-19" value="" style="edgeStyle=segmentEdgeStyle;endArrow=classic;html=1;curved=0;rounded=0;endSize=8;startSize=8;" edge="1" parent="1">
          <mxGeometry width="50" height="50" relative="1" as="geometry">
            <mxPoint x="80" y="500" as="sourcePoint" />
            <mxPoint x="250" y="500" as="targetPoint" />
            <Array as="points">
              <mxPoint x="220" y="500" />
            </Array>
          </mxGeometry>
        </mxCell>
        <mxCell id="unwX76k_dKx1Uzxo_52H-20" value="viewAndEditExxcluded()" style="edgeLabel;html=1;align=center;verticalAlign=middle;resizable=0;points=[];" vertex="1" connectable="0" parent="unwX76k_dKx1Uzxo_52H-19">
          <mxGeometry x="0.0311" y="-3" relative="1" as="geometry">
            <mxPoint as="offset" />
          </mxGeometry>
        </mxCell>
        <mxCell id="unwX76k_dKx1Uzxo_52H-21" value="Controller" style="html=1;whiteSpace=wrap;" vertex="1" parent="1">
          <mxGeometry x="510" y="340" width="110" height="180" as="geometry" />
        </mxCell>
        <mxCell id="unwX76k_dKx1Uzxo_52H-22" value="" style="shape=doubleArrow;whiteSpace=wrap;html=1;" vertex="1" parent="1">
          <mxGeometry x="390" y="400" width="100" height="60" as="geometry" />
        </mxCell>
        <mxCell id="unwX76k_dKx1Uzxo_52H-23" value="" style="shape=doubleArrow;whiteSpace=wrap;html=1;" vertex="1" parent="1">
          <mxGeometry x="650" y="400" width="100" height="60" as="geometry" />
        </mxCell>
        <mxCell id="unwX76k_dKx1Uzxo_52H-25" value="Database" style="html=1;whiteSpace=wrap;" vertex="1" parent="1">
          <mxGeometry x="770" y="340" width="110" height="180" as="geometry" />
        </mxCell>
      </root>
    </mxGraphModel>
  </diagram>
</mxfile>
